HIERARCHY
ROOT Hips
{
	OFFSET 0.000000 89.005402 0.000000
	CHANNELS 6 Xposition Yposition Zposition Xrotation Yrotation Zrotation
	JOINT Spine
	{
		OFFSET 0.116900 10.681000 0.373400
		CHANNELS 3 Xrotation Yrotation Zrotation
		JOINT Spine1
		{
			OFFSET 0.000000 13.840401 0.053500
			CHANNELS 3 Xrotation Yrotation Zrotation
			JOINT Spine2
			{
				OFFSET 0.000000 14.712700 -0.366200
				CHANNELS 3 Xrotation Yrotation Zrotation
				JOINT Neck
				{
					OFFSET 0.000000 35.415497 -3.314200
					CHANNELS 3 Xrotation Yrotation Zrotation
					JOINT Head
					{
						OFFSET 0.000000 16.899200 1.218300
						CHANNELS 3 Xrotation Yrotation Zrotation
						JOINT HeadTop_End
						{
							OFFSET 0.000000 22.206207 2.192500
							CHANNELS 3 Xrotation Yrotation Zrotation
							End Site
							{
								OFFSET 0.000000 22.314178 0.000000
							}
						}
					}
				}
				JOINT LeftShoulder
				{
					OFFSET 12.896400 26.716293 -4.548400
					CHANNELS 3 Xrotation Yrotation Zrotation
					JOINT LeftArm
					{
						OFFSET 19.027000 -4.857010 -1.718400
						CHANNELS 3 Xrotation Yrotation Zrotation
						JOINT LeftForeArm
						{
							OFFSET 24.179897 0.000000 0.000000
							CHANNELS 3 Xrotation Yrotation Zrotation
							JOINT LeftHand
							{
								OFFSET 27.156403 0.000000 0.000000
								CHANNELS 3 Xrotation Yrotation Zrotation
								JOINT LeftHandIndex1
								{
									OFFSET 16.441200 0.000000 0.000000
									CHANNELS 3 Xrotation Yrotation Zrotation
									JOINT LeftHandIndex2
									{
										OFFSET 4.821899 0.000000 0.000000
										CHANNELS 3 Xrotation Yrotation Zrotation
										JOINT LeftHandIndex3
										{
											OFFSET 6.386497 0.000000 0.000000
											CHANNELS 3 Xrotation Yrotation Zrotation
											JOINT LeftHandIndex4
											{
												OFFSET 5.188988 0.000000 0.000000
												CHANNELS 3 Xrotation Yrotation Zrotation
												End Site
												{
													OFFSET -0.178703 5.185913 0.000177
												}
											}
										}
									}
								}
								JOINT LeftHandThumb1
								{
									OFFSET 6.534897 -5.032593 5.900300
									CHANNELS 3 Xrotation Yrotation Zrotation
									JOINT LeftHandThumb2
									{
										OFFSET 3.818176 -2.204422 2.204423
										CHANNELS 3 Xrotation Yrotation Zrotation
										JOINT LeftHandThumb3
										{
											OFFSET 3.252098 -1.877594 1.877601
											CHANNELS 3 Xrotation Yrotation Zrotation
											JOINT LeftHandThumb4
											{
												OFFSET 5.251778 -3.032120 3.032117
												CHANNELS 3 Xrotation Yrotation Zrotation
												End Site
												{
													OFFSET 0.000023 6.780014 0.000000
												}
											}
										}
									}
								}
							}
						}
					}
				}
				JOINT RightShoulder
				{
					OFFSET -12.896300 26.716293 -4.548400
					CHANNELS 3 Xrotation Yrotation Zrotation
					JOINT RightArm
					{
						OFFSET -19.027000 -4.857010 -1.718400
						CHANNELS 3 Xrotation Yrotation Zrotation
						JOINT RightForeArm
						{
							OFFSET -24.179897 0.000000 0.000000
							CHANNELS 3 Xrotation Yrotation Zrotation
							JOINT RightHand
							{
								OFFSET -27.156403 0.000000 0.000000
								CHANNELS 3 Xrotation Yrotation Zrotation
								JOINT RightHandThumb1
								{
									OFFSET -6.591202 -4.852203 5.988100
									CHANNELS 3 Xrotation Yrotation Zrotation
									JOINT RightHandThumb2
									{
										OFFSET -3.818176 -2.204422 2.204423
										CHANNELS 3 Xrotation Yrotation Zrotation
										JOINT RightHandThumb3
										{
											OFFSET -3.252098 -1.877594 1.877601
											CHANNELS 3 Xrotation Yrotation Zrotation
											JOINT RightHandThumb4
											{
												OFFSET -5.251778 -3.032120 3.032117
												CHANNELS 3 Xrotation Yrotation Zrotation
												End Site
												{
													OFFSET -0.000023 6.780014 0.000000
												}
											}
										}
									}
								}
								JOINT RightHandIndex1
								{
									OFFSET -16.029404 0.000000 0.000000
									CHANNELS 3 Xrotation Yrotation Zrotation
									JOINT RightHandIndex2
									{
										OFFSET -5.213303 0.000000 0.000000
										CHANNELS 3 Xrotation Yrotation Zrotation
										JOINT RightHandIndex3
										{
											OFFSET -6.386528 0.000000 0.000000
											CHANNELS 3 Xrotation Yrotation Zrotation
											JOINT RightHandIndex4
											{
												OFFSET -5.189026 0.000000 0.000000
												CHANNELS 3 Xrotation Yrotation Zrotation
												End Site
												{
													OFFSET 0.236702 5.183624 0.001972
												}
											}
										}
									}
								}
							}
						}
					}
				}
			}
		}
	}
	JOINT LeftUpLeg
	{
		OFFSET 14.073000 -7.904099 -1.463000
		CHANNELS 3 Xrotation Yrotation Zrotation
		JOINT LeftLeg
		{
			OFFSET -0.109806 -34.073280 4.093200
			CHANNELS 3 Xrotation Yrotation Zrotation
			JOINT LeftFoot
			{
				OFFSET 0.109806 -29.899420 -6.319000
				CHANNELS 3 Xrotation Yrotation Zrotation
				JOINT LeftToeBase
				{
					OFFSET 1.551100 -14.988700 20.535801
					CHANNELS 3 Xrotation Yrotation Zrotation
					JOINT LeftToe_End
					{
						OFFSET 0.221200 0.570800 13.248301
						CHANNELS 3 Xrotation Yrotation Zrotation
						End Site
						{
							OFFSET 0.000000 13.262435 0.000000
						}
					}
				}
			}
		}
	}
	JOINT RightUpLeg
	{
		OFFSET -13.839300 -7.904099 -1.463000
		CHANNELS 3 Xrotation Yrotation Zrotation
		JOINT RightLeg
		{
			OFFSET 0.109694 -34.073219 4.093300
			CHANNELS 3 Xrotation Yrotation Zrotation
			JOINT RightFoot
			{
				OFFSET -0.109694 -29.899384 -6.319200
				CHANNELS 3 Xrotation Yrotation Zrotation
				JOINT RightToeBase
				{
					OFFSET -1.551100 -14.988700 20.535801
					CHANNELS 3 Xrotation Yrotation Zrotation
					JOINT RightToe_End
					{
						OFFSET -0.221200 0.570900 13.248299
						CHANNELS 3 Xrotation Yrotation Zrotation
						End Site
						{
							OFFSET 0.000000 13.262440 0.000000
						}
					}
				}
			}
		}
	}
}
MOTION
Frames: 4
Frame Time: 0.033333
-12.355869 63.858917 -103.235085 14.212655 -40.868266 13.022819 10.411448 5.259259 6.579598 1.509705 0.778561 1.952415 1.498302 0.832205 1.942496 6.012405 3.070255 -0.712860 -10.950871 27.241233 -22.574672 0.000001 -0.000000 0.000000 -0.125618 -16.270626 -15.973222 -3.919003 5.062954 -48.793471 -0.000003 -36.756813 -0.000008 -34.368703 -13.512375 7.561556 0.255310 3.378214 -45.814341 5.654094 5.847760 -88.067462 2.162148 4.544816 -50.866386 0.000002 -0.000002 -0.000002 -6.141209 -11.690799 -6.761683 9.914120 42.595529 3.409848 -0.422806 8.108089 27.509116 0.000001 -0.000001 0.000003 0.776551 9.653535 6.222188 -44.761600 45.505613 68.000291 -0.000074 70.517325 0.000091 -14.088304 12.976015 4.156273 -7.341104 13.749656 7.412338 9.855736 -44.489107 -3.903289 -0.115779 -14.513092 -28.973871 0.000001 -0.000000 -0.000001 -0.124376 -2.384787 45.108857 4.500584 -4.654546 88.071150 1.723229 -3.618381 50.920122 0.000000 -0.000000 -0.000000 -76.345416 0.596871 26.512561 62.553898 1.608232 -4.868919 7.934991 6.216581 -7.699780 1.107203 0.000005 -0.000001 -0.000000 0.000000 -0.000000 -23.181638 2.504788 -36.457504 66.953742 -1.299722 -2.929927 -43.032589 -17.083621 32.718061 -3.894183 0.000001 -0.000002 -0.000000 -0.000001 0.000000 
-12.206008 64.618172 -105.076302 12.349132 -40.072392 12.370218 11.534527 2.955468 6.816870 1.276537 0.412793 1.983526 1.272143 0.481415 1.971529 7.377529 3.026363 -0.837813 -8.142407 27.445384 -23.453181 -0.000001 -0.000000 0.000000 -0.073322 -17.522097 -14.986280 -5.418102 2.175502 -47.984965 -0.000002 -37.093839 -0.000002 -33.575533 -15.722638 9.059374 0.255308 3.378212 -45.814341 5.654095 5.847756 -88.067462 2.162148 4.544814 -50.866386 -0.000001 -0.000001 -0.000002 -6.141211 -11.690799 -6.761685 9.914123 42.595529 3.409849 -0.422807 8.108094 27.509111 -0.000000 0.000000 0.000002 0.736126 9.372900 6.835098 -45.159722 44.469220 72.997681 -0.000091 69.533607 0.000090 -14.810852 12.336893 4.392517 -7.341103 13.749653 7.412336 9.855738 -44.489107 -3.903290 -0.115780 -14.513092 -28.973871 -0.000000 -0.000001 -0.000000 -0.124375 -2.384787 45.108854 4.500584 -4.654546 88.071150 1.723229 -3.618377 50.920116 0.000000 0.000002 0.000000 -73.873352 0.839809 25.755303 66.782885 -0.334809 -5.202190 4.269356 3.449200 -13.181731 1.438486 0.000000 0.000002 0.000000 0.000001 0.000000 -23.016689 2.873324 -35.267842 68.043089 -3.878010 -3.537474 -42.483261 -16.704969 33.187882 -3.958523 -0.000005 0.000002 0.000001 0.000000 0.000000 
-11.815434 65.280754 -106.447006 10.175814 -39.265883 11.508358 12.246290 1.469106 7.014886 1.076729 0.210303 2.146028 1.076934 0.296831 2.134374 8.574166 2.863835 -0.938219 -5.121754 27.105047 -24.298898 0.000001 0.000000 0.000000 0.053570 -18.399778 -13.712710 -7.953908 -0.532128 -45.506952 -0.000005 -40.320161 -0.000016 -29.443361 -17.550299 10.271409 0.255310 3.378217 -45.814341 5.654093 5.847757 -88.067455 2.162144 4.544815 -50.866389 -0.000002 -0.000003 -0.000002 -6.141215 -11.690804 -6.761682 9.914120 42.595529 3.409848 -0.422808 8.108090 27.509106 -0.000000 0.000000 0.000000 0.715690 8.684270 6.904507 -46.503083 44.225393 77.461326 -0.000029 71.176124 0.000030 -14.352522 11.400529 3.635634 -7.341102 13.749656 7.412337 9.855738 -44.489103 -3.903289 -0.115780 -14.513092 -28.973871 0.000000 -0.000001 -0.000002 -0.124375 -2.384787 45.108851 4.500584 -4.654548 88.071150 1.723227 -3.618379 50.920119 -0.000000 -0.000002 -0.000000 -69.912095 0.905542 23.661331 72.092210 -2.152351 -4.183715 0.139253 0.116649 -16.499946 -3.701104 -0.408683 5.019558 0.000000 -0.000001 0.000000 -22.227985 2.985385 -34.358246 68.338467 -4.024228 -4.274016 -41.731763 -18.081418 32.484629 -3.043517 -0.000010 0.000012 -0.000000 -0.000002 -0.000000 
-11.145787 65.794006 -107.491997 8.228765 -39.375603 10.581257 12.447243 1.111604 7.196199 0.947038 0.182224 2.282566 0.948297 0.280666 2.270291 9.499970 2.824169 -1.232735 -2.479432 27.097522 -25.078228 0.000001 -0.000000 0.000000 0.087634 -18.756360 -13.366065 -11.554603 -2.580806 -41.860426 0.000003 -45.113871 0.000013 -25.853613 -18.371908 9.896314 0.255314 3.378213 -45.814341 5.654095 5.847757 -88.067462 2.162148 4.544814 -50.866382 -0.000002 0.000001 -0.000001 -6.141212 -11.690805 -6.761687 9.914119 42.595525 3.409845 -0.422806 8.108092 27.509113 -0.000002 -0.000000 -0.000002 0.744724 8.459581 6.118828 -49.813884 44.407243 81.173684 0.000022 73.697372 -0.000032 -12.714309 11.338479 2.968042 -7.341103 13.749657 7.412336 9.855737 -44.489107 -3.903290 -0.115780 -14.513092 -28.973871 -0.000000 0.000000 -0.000002 -0.124375 -2.384787 45.108854 4.500585 -4.654544 88.071143 1.723228 -3.618379 50.920119 -0.000000 0.000001 -0.000000 -64.564856 1.066446 20.939500 78.224155 -1.813537 -1.960405 -7.198220 -3.846325 -14.933476 -8.908256 -0.430086 2.764406 -0.000000 -0.000001 0.000000 -22.059674 3.277611 -34.051662 68.470707 -4.095146 -4.756087 -40.678291 -18.061448 32.166554 -2.273009 0.000006 0.000007 -0.000000 -0.000001 0.000000 
